<?xml version="1.0" standalone="no"?><!DOCTYPE svg PUBLIC "-//W3C//DTD SVG 1.1//EN" "http://www.w3.org/Graphics/SVG/1.1/DTD/svg11.dtd"><svg t="1621856722150" class="icon" viewBox="0 0 1024 1024" version="1.1" xmlns="http://www.w3.org/2000/svg" p-id="3025" xmlns:xlink="http://www.w3.org/1999/xlink" width="200" height="200"><defs><style type="text/css"></style></defs><path d="M923.648 456.704L571.392 174.08c-13.312-10.24-29.696-16.384-46.08-16.384s-32.768 6.144-46.08 16.384l-378.88 302.08c-10.24 8.192-11.264 22.528-4.096 32.768 4.096 5.12 11.264 9.216 18.432 9.216 5.12 0 10.24-2.048 14.336-5.12L194.56 460.8v344.064c0 33.792 27.648 61.44 61.44 61.44H792.576c16.384 0 31.744-6.144 44.032-18.432 11.264-11.264 18.432-27.648 18.432-44.032v-83.968c0-13.312-10.24-23.552-23.552-23.552s-23.552 10.24-23.552 23.552v83.968c0 8.192-7.168 15.36-15.36 15.36H610.304V658.432c0-22.528-9.216-44.032-24.576-60.416-16.384-16.384-36.864-24.576-60.416-24.576-47.104 0-84.992 37.888-84.992 84.992V819.2H257.024c-8.192 0-15.36-7.168-15.36-15.36V422.912l266.24-211.968c10.24-8.192 23.552-8.192 33.792 0L808.96 424.96v110.592c0 13.312 10.24 23.552 23.552 23.552s23.552-10.24 23.552-23.552v-72.704l37.888 30.72c10.24 8.192 24.576 6.144 32.768-4.096 8.192-10.24 6.144-25.6-3.072-32.768zM487.424 658.432c0-21.504 17.408-37.888 37.888-37.888 10.24 0 19.456 4.096 26.624 11.264 7.168 7.168 11.264 16.384 11.264 26.624V819.2h-76.8V658.432z" p-id="3026" fill="#ffffff"></path></svg>