<?xml version="1.0" standalone="no"?><!DOCTYPE svg PUBLIC "-//W3C//DTD SVG 1.1//EN" "http://www.w3.org/Graphics/SVG/1.1/DTD/svg11.dtd"><svg t="1623138605924" class="icon" viewBox="0 0 1024 1024" version="1.1" xmlns="http://www.w3.org/2000/svg" p-id="2271" xmlns:xlink="http://www.w3.org/1999/xlink" width="200" height="200"><defs><style type="text/css"></style></defs><path d="M512 0c282.773333 0 512 229.226667 512 512S794.773333 1024 512 1024 0 794.773333 0 512 229.226667 0 512 0z m0 85.333333C276.352 85.333333 85.333333 276.352 85.333333 512s191.018667 426.666667 426.666667 426.666667 426.666667-191.018667 426.666667-426.666667S747.648 85.333333 512 85.333333z m53.333333 149.333334c32 0 37.546667 30.634667 32 64l-21.333333 149.333333 117.333333 21.333333c33.92 6.784 53.333333 21.333333 53.333334 42.176 0 11.157333-9.258667 20.416-21.333334 32.490667l-213.333333 213.333333c-14.613333 14.613333-42.666667 32-64 32s-24.170667-46.933333-21.333333-64c2.24-13.482667 4.48-27.882667 6.634666-42.261333l1.6-10.752c6.528-44.629333 11.84-86.357333 12.906667-94.784l0.170667-1.365333L448 576l-106.944-22.613333C301.994667 542.826667 277.333333 533.333333 277.333333 522.666667s16.810667-27.712 32-42.666667l202.666667-213.333333c20.416-20.416 32-32 53.333333-32z" fill="#ffffff" p-id="2272"></path></svg>