<?xml version="1.0" standalone="no"?><!DOCTYPE svg PUBLIC "-//W3C//DTD SVG 1.1//EN" "http://www.w3.org/Graphics/SVG/1.1/DTD/svg11.dtd"><svg t="1621852357954" class="icon" viewBox="0 0 1024 1024" version="1.1" xmlns="http://www.w3.org/2000/svg" p-id="2375" xmlns:xlink="http://www.w3.org/1999/xlink" width="200" height="200"><defs><style type="text/css"></style></defs><path d="M983.027712 553.667584l-11.487232 11.487232c-9.509888 9.509888-24.927232 9.509888-34.43712 0l-88.77056-88.77056 0 418.699264c0 35.387392-28.681216 64.093184-64.068608 64.093184L239.52896 959.176704c-35.387392 0-64.068608-28.705792-64.068608-64.093184L175.460352 476.384256l-88.77056 88.77056c-9.509888 9.509888-24.927232 9.509888-34.43712 0l-11.487232-11.487232c-9.509888-9.510912-9.509888-24.927232 0-34.43712L488.497152 71.499776c6.356992-6.356992 15.291392-8.083456 23.400448-5.932032 8.109056-2.152448 17.042432-0.42496 23.399424 5.932032l447.730688 447.730688C992.5376 528.740352 992.5376 544.156672 983.027712 553.667584L983.027712 553.667584zM511.8976 139.948032 239.52896 414.44352l0 448.606208c0 17.693696 14.365696 32.034816 32.059392 32.034816l480.616448 0c17.693696 0 32.059392-14.34112 32.059392-32.034816L784.264192 414.44352 511.8976 139.948032 511.8976 139.948032zM511.8976 590.682112c-53.082112 0-96.128-43.045888-96.128-96.128 0-53.081088 43.045888-96.128 96.128-96.128 53.082112 0 96.128 43.046912 96.128 96.128C608.0256 547.636224 564.979712 590.682112 511.8976 590.682112L511.8976 590.682112zM511.8976 462.519296c-17.693696 0-32.034816 14.34112-32.034816 32.034816 0 17.69472 14.340096 32.034816 32.034816 32.034816 17.693696 0 32.034816-14.340096 32.034816-32.034816C543.931392 476.859392 529.591296 462.519296 511.8976 462.519296L511.8976 462.519296z" p-id="2376" fill="#e6e6e6"></path></svg>